<svg version="1.1" id="Uploaded to svgrepo.com" xmlns="http://www.w3.org/2000/svg" xmlns:xlink="http://www.w3.org/1999/xlink" x="0px" y="0px"
	 width="32px" height="32px" viewBox="0 0 32 32" style="enable-background:new 0 0 32 32;" xml:space="preserve">
<style type="text/css">
	.pictogram_een{fill:#F4D6B0;}
	.pictogram_vijf{fill:#01A59C;}
	.pictogram_zes{fill:#0C6667;}
	.st0{fill:#F8AD89;}
	.st1{fill:#E54D2E;}
	.st2{fill:#F27261;}
	.st3{fill:none;}
	.st4{clip-path:url(#SVGID_2_);fill:#F27261;}
	.st5{clip-path:url(#SVGID_2_);fill:none;}
	.st6{clip-path:url(#SVGID_6_);fill:#F4D6B0;}
	.st7{clip-path:url(#SVGID_8_);fill:#F27261;}
	.st8{clip-path:url(#SVGID_8_);fill:none;}
	.st9{clip-path:url(#SVGID_10_);fill:#F27261;}
	.st10{clip-path:url(#SVGID_10_);fill:none;}
	.st11{fill:#F4D6B0;}
</style>
<g>
	<path class="pictogram_vijf" d="M29,0H3C1.35,0,0,1.35,0,3v26c0,1.65,1.35,3,3,3h26c1.65,0,3-1.35,3-3V3C32,1.35,30.65,0,29,0z"/>
	<path class="pictogram_zes" d="M29,0H16v32h13c1.65,0,3-1.35,3-3V3C32,1.35,30.65,0,29,0z"/>
	<path class="pictogram_een" d="M13.587,5.173l-0.684-0.683c-0.586-0.585-0.586-1.535,0-2.121c0.586-0.586,1.535-0.586,2.121,0
		c4.272,4.271,0.919,0.919,4.597,4.596c-4.322,4.322,2.399-2.399-4.597,4.597c-0.586,0.586-1.535,0.586-2.121,0
		c-0.586-0.586-0.586-1.535,0-2.121l1.335-1.335C10.082,8.727,7,12.298,7,16.5c0,4.687,3.813,8.5,8.5,8.5s8.5-3.813,8.5-8.5
		c0-2.641-1.212-5.005-3.108-6.565c2.33-2.33-0.204,0.204,2.121-2.121C25.45,9.924,27,13.032,27,16.5C27,22.841,21.841,28,15.5,28
		S4,22.841,4,16.5C4,10.821,8.158,6.088,13.587,5.173z"/>
</g>
</svg>